<svg t="1721214302100" class="icon" viewBox="0 0 1024 1024" version="1.1" xmlns="http://www.w3.org/2000/svg" p-id="2640" width="200" height="200"><path d="M883.264 895.936H140.288a46.4 46.4 0 0 1-44.416-48.064v-672a46.464 46.464 0 0 1 44.416-48.192h99.648v-15.936a48 48 0 1 1 96 0v15.936h352v-15.936a48 48 0 0 1 96 0v15.936h99.392a46.592 46.592 0 0 1 44.8 48.192v672a46.528 46.528 0 0 1-44.864 48.064z m-579.456-240.128a48 48 0 0 0 0 96h416a48 48 0 0 0 0-96z m0-192a48 48 0 1 0 0 96h416a48 48 0 1 0 0-96z m0-192a48 48 0 0 0 0 96h416a48 48 0 0 0 0-96z" fill="#585858" p-id="2641"></path></svg>