<svg t="1721214363352" class="icon" viewBox="0 0 1024 1024" version="1.1" xmlns="http://www.w3.org/2000/svg" p-id="2808" width="200" height="200"><path d="M96 896a32 32 0 0 1-32-32V592a32 32 0 0 1 32-32h832a32 32 0 0 1 32 32v272a32 32 0 0 1-32 32z m48.064-176.064a47.936 47.936 0 0 0 48 48h160a48 48 0 0 0 0-96h-160a47.936 47.936 0 0 0-48.064 48z m-48.064-256a32 32 0 0 1-32-32V160a32 32 0 0 1 32-32h832a32 32 0 0 1 32 32v271.936a32 32 0 0 1-32 32z m48.064-175.872a48.064 48.064 0 0 0 48 48h160a48 48 0 0 0 0-96h-160a48 48 0 0 0-48.064 47.936z" fill="#585858" p-id="2809"></path></svg>